<?xml version="1.0" encoding="UTF-8" standalone="no"?>
<!-- Generator: Adobe Illustrator 15.1.0, SVG Export Plug-In . SVG Version: 6.00 Build 0)  -->

<svg
   xmlns:dc="http://purl.org/dc/elements/1.1/"
   xmlns:cc="http://creativecommons.org/ns#"
   xmlns:rdf="http://www.w3.org/1999/02/22-rdf-syntax-ns#"
   xmlns:svg="http://www.w3.org/2000/svg"
   xmlns="http://www.w3.org/2000/svg"
   xmlns:sodipodi="http://sodipodi.sourceforge.net/DTD/sodipodi-0.dtd"
   xmlns:inkscape="http://www.inkscape.org/namespaces/inkscape"
   version="1.1"
   id="Layer_1"
   x="0px"
   y="0px"
   width="314.50101"
   height="110"
   viewBox="0 0 314.50101 110"
   enable-background="new 0 0 612 792"
   xml:space="preserve"
   inkscape:version="0.48.2 r9819"
   sodipodi:docname="logo-light.svg"><metadata
   id="metadata11"><rdf:RDF><cc:Work
       rdf:about=""><dc:format>image/svg+xml</dc:format><dc:type
         rdf:resource="http://purl.org/dc/dcmitype/StillImage" /></cc:Work></rdf:RDF></metadata><defs
   id="defs9" /><sodipodi:namedview
   pagecolor="#ffffff"
   bordercolor="#666666"
   borderopacity="1"
   objecttolerance="10"
   gridtolerance="10"
   guidetolerance="10"
   inkscape:pageopacity="0"
   inkscape:pageshadow="2"
   inkscape:window-width="1235"
   inkscape:window-height="834"
   id="namedview7"
   showgrid="false"
   fit-margin-top="0"
   fit-margin-left="0"
   fit-margin-right="0"
   fit-margin-bottom="0"
   inkscape:zoom="0.2979798"
   inkscape:cx="156.472"
   inkscape:cy="57.170999"
   inkscape:window-x="0"
   inkscape:window-y="0"
   inkscape:window-maximized="0"
   inkscape:current-layer="Layer_1" />
<path
   d="M 11.04217,19.832329 C 4.85341,19.832329 0,15.473899 0,9.9156594 0,4.4668694 4.9749,-6.1775327e-7 11.04217,-6.1775327e-7 17.10843,-6.1775327e-7 21.96185,4.4668694 21.96185,9.9156594 c 0,5.5582396 -4.85342,9.9166696 -10.91968,9.9166696 m 0,6.58434 c 6.43072,0 9.46285,4.03313 9.46285,12.4247 v 34.54317 c 0,8.391561 -2.90964,12.533131 -9.46285,12.533131 -6.55121,0 -9.58534,-4.14157 -9.58534,-12.533131 v -34.54317 c 0,-8.39157 3.03413,-12.4247 9.58534,-12.4247 M 115.51004,85.91867 c -6.5502,0 -9.46285,-4.14156 -9.46285,-12.533131 v -19.39658 c 0,-8.71788 -2.54819,-13.07531 -8.73695,-13.07531 -6.91566,0 -9.58434,4.35844 -9.58434,12.85944 v 19.61346 c 0,8.391561 -3.03313,12.533131 -9.58534,12.533131 -6.55321,0 -9.58534,-4.14157 -9.58534,-12.533131 v -19.39659 c 0,-8.71787 -2.42671,-13.0753 -8.61546,-13.0753 -6.91466,0 -9.58534,4.35843 -9.58534,12.85944 v 19.61345 c 0,8.391571 -3.03414,12.533131 -9.58434,12.533131 -6.55321,0 -9.58534,-4.14156 -9.58534,-12.533131 v -34.54317 c 0,-8.39157 3.03213,-12.4247 9.58534,-12.4247 3.76104,0 6.79317,1.74297 9.09839,5.44879 4.00502,-3.92168 8.85844,-5.66566 15.28916,-5.66566 8.25,0 14.56024,2.7249 19.0492,8.06426 5.82429,-5.77611 11.40662,-8.06426 19.29217,-8.06426 13.2249,0 21.59638,7.73695 21.59638,22.55723 v 24.62751 c 0,8.389561 -3.03213,12.531121 -9.58534,12.531121 m 75.83534,11.22189 C 185.76406,105.53213 175.81426,110 162.2249,110 c -17.47289,0 -28.02912,-5.7741 -28.02912,-12.53112 0,-4.35844 3.51808,-7.51908 8.25,-7.51908 4.73193,0 10.43575,4.57731 20.50603,4.57731 9.34337,0 14.92369,-5.12149 14.92369,-14.49297 0,-0.653621 -0.12148,-1.309241 -0.12148,-2.071291 -4.1235,5.339361 -9.82832,8.064261 -17.3494,8.064261 -15.04619,0 -27.66466,-12.422691 -27.66466,-29.857431 0,-17.43675 13.46787,-30.40562 29.72791,-30.40562 6.5492,0 11.40462,1.96184 15.28615,6.10241 2.18574,-3.59639 5.58333,-5.4488 8.49397,-5.4488 6.55221,0 9.58534,4.03313 9.58534,12.4247 v 34.54317 c 0.001,10.352411 -0.7269,18.197791 -4.48795,23.755021 M 165.01707,42.109439 c -7.03815,0 -12.499,5.44879 -12.499,14.05823 0,8.82631 5.34036,14.38353 12.499,14.38353 7.15863,0 12.61646,-5.66767 12.61646,-14.38353 0,-8.60944 -5.57931,-14.05823 -12.61646,-14.05823 m 69.4006,44.789151 c -18.56225,0 -28.87651,-8.718871 -28.87651,-25.172691 v -22.88353 c 0,-8.39157 3.03314,-12.4247 9.58535,-12.4247 6.43072,0 9.46385,4.03313 9.46385,12.4247 v 19.39659 c 0,8.06425 2.06426,12.53112 9.82731,12.53112 7.76606,0 9.82831,-4.46687 9.82831,-12.53112 v -19.39659 c 0,-8.39157 3.03414,-12.4247 9.58535,-12.4247 6.55321,0 9.46586,4.03313 9.46586,12.4247 v 22.88353 c -10e-4,16.45482 -10.31426,25.172691 -28.87952,25.172691 m 63.82329,-41.628511 c -5.33935,2.28815 -5.94578,4.35843 -5.94578,10.24398 v 17.87048 c 0,8.391561 -3.03414,12.533131 -9.58534,12.533131 -6.55221,0 -9.58534,-4.14157 -9.58534,-12.533131 v -34.54317 c 0,-8.39157 3.03313,-12.4247 9.58534,-12.4247 3.76104,0 6.79418,1.74297 9.0994,5.44879 4.00401,-3.81225 8.49397,-5.7751 12.98494,-5.7751 5.33735,0 9.70682,3.92269 9.70682,8.499 0,6.86646 -8.49397,7.41064 -16.26004,10.68072"
   id="path3"
   inkscape:connector-curvature="0"
   style="fill:#ffffff" />
<path
   d="m 10.998,20.192999 c -6.164,0 -10.998,-4.341 -10.998,-9.876 0,-5.4269996 4.956,-9.87699962 10.998,-9.87699962 6.042,0 10.876,4.45000002 10.876,9.87699962 0,5.535 -4.834,9.876 -10.876,9.876"
   id="path5"
   inkscape:connector-curvature="0"
   style="fill:#1bb76e" />
</svg>