<svg width="91" height="33" viewBox="0 0 91 33" fill="none" xmlns="http://www.w3.org/2000/svg">
<g clip-path="url(#clip0_322_137)">
<mask id="mask0_322_137" style="mask-type:alpha" maskUnits="userSpaceOnUse" x="0" y="-1" width="91" height="34">
<path d="M0 -0.18457H90.6V32.1154H0" fill="white"/>
</mask>
<g mask="url(#mask0_322_137)">
<path d="M85.9001 13.7154C84.4001 14.4154 84.2001 14.9154 84.2001 16.6154V21.7154C84.2001 24.1154 83.3001 25.3154 81.4001 25.3154C79.5001 25.3154 78.6001 24.1154 78.6001 21.7154V11.9154C78.6001 9.51541 79.5001 8.41541 81.4001 8.41541C82.5001 8.41541 83.4001 8.91541 84.0001 9.91541C85.2001 8.81541 86.4001 8.3154 87.7001 8.3154C89.2001 8.3154 90.5001 9.41541 90.5001 10.7154C90.6001 12.7154 88.1001 12.8154 85.9001 13.7154ZM67.5001 25.6154C62.2001 25.6154 59.2001 23.1154 59.2001 18.4154V11.9154C59.2001 9.51541 60.1001 8.41541 62.0001 8.41541C63.8001 8.41541 64.7001 9.51541 64.7001 11.9154V17.4154C64.7001 19.7154 65.3001 21.0154 67.5001 21.0154C69.7001 21.0154 70.3001 19.7154 70.3001 17.4154V11.9154C70.3001 9.51541 71.2001 8.41541 73.1001 8.41541C75.0001 8.41541 75.8001 9.51541 75.8001 11.9154V18.4154C75.8001 23.1154 72.9001 25.6154 67.5001 25.6154ZM47.6001 12.8154C45.6001 12.8154 44.0001 14.3154 44.0001 16.8154C44.0001 19.3154 45.5001 20.9154 47.6001 20.9154C49.7001 20.9154 51.2001 19.3154 51.2001 16.8154C51.2001 14.4154 49.6001 12.8154 47.6001 12.8154ZM55.2001 28.5154C53.6001 30.9154 50.7001 32.2154 46.8001 32.2154C41.8001 32.2154 38.7001 30.6154 38.7001 28.6154C38.7001 27.4154 39.7001 26.5154 41.1001 26.5154C42.5001 26.5154 44.1001 27.8154 47.0001 27.8154C49.7001 27.8154 51.3001 26.3154 51.3001 23.7154C51.3001 23.5154 51.3001 23.3154 51.3001 23.1154C50.1001 24.6154 48.5001 25.4154 46.3001 25.4154C42.0001 25.4154 38.3001 21.9154 38.3001 16.9154C38.3001 11.9154 42.2001 8.3154 46.8001 8.3154C48.7001 8.3154 50.1001 8.9154 51.2001 10.0154C51.8001 9.0154 52.8001 8.5154 53.6001 8.5154C55.5001 8.5154 56.4001 9.6154 56.4001 12.0154V21.8154C56.4001 24.7154 56.2001 26.9154 55.2001 28.5154ZM33.4001 25.3154C31.5001 25.3154 30.7001 24.1154 30.7001 21.7154V16.2154C30.7001 13.7154 30.0001 12.5154 28.2001 12.5154C26.2001 12.5154 25.4001 13.7154 25.4001 16.2154V21.8154C25.4001 24.2154 24.5001 25.4154 22.6001 25.4154C20.7001 25.4154 19.8001 24.2154 19.8001 21.8154V16.3154C19.8001 13.8154 19.1001 12.6154 17.3001 12.6154C15.3001 12.6154 14.5001 13.8154 14.5001 16.3154V21.9154C14.5001 24.3154 13.6001 25.5154 11.7001 25.5154C9.8001 25.5154 8.9001 24.3154 8.9001 21.9154V12.1154C8.9001 9.7154 9.8001 8.61541 11.7001 8.61541C12.8001 8.61541 13.7001 9.11541 14.3001 10.1154C15.5001 9.01541 16.8001 8.5154 18.7001 8.5154C21.1001 8.5154 22.9001 9.3154 24.2001 10.8154C25.9001 9.2154 27.5001 8.5154 29.7001 8.5154C33.5001 8.5154 35.9001 10.7154 35.9001 14.9154V21.9154C36.1001 24.1154 35.2001 25.3154 33.4001 25.3154ZM3.3001 8.41541C5.2001 8.41541 6.0001 9.51541 6.0001 11.9154V21.7154C6.0001 24.1154 5.2001 25.3154 3.3001 25.3154C1.4001 25.3154 0.500098 24.1154 0.500098 21.7154V11.9154C0.600098 9.51541 1.4001 8.41541 3.3001 8.41541ZM3.3001 6.51541C1.5001 6.51541 0.100098 5.31541 0.100098 3.71541C0.100098 2.21541 1.5001 0.915405 3.3001 0.915405C5.0001 0.915405 6.4001 2.21541 6.4001 3.71541C6.5001 5.31541 5.1001 6.51541 3.3001 6.51541Z" fill="white"/>
</g>
<path d="M3.3001 6.51541C1.5001 6.51541 0.100098 5.31541 0.100098 3.71541C0.100098 2.21541 1.5001 0.915405 3.3001 0.915405C5.1001 0.915405 6.4001 2.21541 6.4001 3.71541C6.5001 5.31541 5.1001 6.51541 3.3001 6.51541Z" fill="white"/>
</g>
<defs>
<clipPath id="clip0_322_137">
<rect width="91" height="33" fill="white"/>
</clipPath>
</defs>
</svg>
