<?xml version="1.0" encoding="utf-8"?>
<!-- Generator: Adobe Illustrator 19.2.1, SVG Export Plug-In . SVG Version: 6.00 Build 0)  -->
<svg version="1.1" id="Layer_1" xmlns="http://www.w3.org/2000/svg" xmlns:xlink="http://www.w3.org/1999/xlink" x="0px" y="0px"
	 viewBox="0 0 91 33" style="enable-background:new 0 0 91 33;" xml:space="preserve">
<style type="text/css">
	.st0{filter:url(#Adobe_OpacityMaskFilter);}
	.st1{fill:#FFFFFF;}
	.st2{mask:url(#mask-2);fill:#191819;}
	.st3{fill:#25B46E;}
</style>
<title>Imgur Logo</title>
<desc>Created with Sketch.</desc>
<g id="Page-1">
	<g id="Ad-UX-Copy-3" transform="translate(-163.000000, -11.000000)">
		<g id="Header">
			<g id="Imgur-Logo" transform="translate(163.000000, 10.615385)">
				<g id="Group-3">
					<g id="Clip-2">
					</g>
					<defs>
						<filter id="Adobe_OpacityMaskFilter" filterUnits="userSpaceOnUse" x="0.6" y="8.6" width="90" height="23.9">
							<feColorMatrix  type="matrix" values="1 0 0 0 0  0 1 0 0 0  0 0 1 0 0  0 0 0 1 0"/>
						</filter>
					</defs>
					<mask maskUnits="userSpaceOnUse" x="0.6" y="8.6" width="90" height="23.9" id="mask-2">
						<g class="st0">
							<polyline id="path-1" class="st1" points="0,0.2 90.6,0.2 90.6,32.5 0,32.5 							"/>
						</g>
					</mask>
					<path id="Fill-1" class="st2" d="M85.9,14.1c-1.5,0.7-1.7,1.2-1.7,2.9v5.1c0,2.4-0.9,3.6-2.8,3.6c-1.9,0-2.8-1.2-2.8-3.6v-9.8
						c0-2.4,0.9-3.5,2.8-3.5c1.1,0,2,0.5,2.6,1.5c1.2-1.1,2.4-1.6,3.7-1.6c1.5,0,2.8,1.1,2.8,2.4C90.6,13.1,88.1,13.2,85.9,14.1
						 M67.5,26c-5.3,0-8.3-2.5-8.3-7.2v-6.5c0-2.4,0.9-3.5,2.8-3.5c1.8,0,2.7,1.1,2.7,3.5v5.5c0,2.3,0.6,3.6,2.8,3.6
						c2.2,0,2.8-1.3,2.8-3.6v-5.5c0-2.4,0.9-3.5,2.8-3.5c1.9,0,2.7,1.1,2.7,3.5v6.5C75.8,23.5,72.9,26,67.5,26 M47.6,13.2
						c-2,0-3.6,1.5-3.6,4c0,2.5,1.5,4.1,3.6,4.1c2.1,0,3.6-1.6,3.6-4.1C51.2,14.8,49.6,13.2,47.6,13.2 M55.2,28.9
						c-1.6,2.4-4.5,3.7-8.4,3.7c-5,0-8.1-1.6-8.1-3.6c0-1.2,1-2.1,2.4-2.1c1.4,0,3,1.3,5.9,1.3c2.7,0,4.3-1.5,4.3-4.1
						c0-0.2,0-0.4,0-0.6c-1.2,1.5-2.8,2.3-5,2.3c-4.3,0-8-3.5-8-8.5s3.9-8.6,8.5-8.6c1.9,0,3.3,0.6,4.4,1.7c0.6-1,1.6-1.5,2.4-1.5
						c1.9,0,2.8,1.1,2.8,3.5v9.8C56.4,25.1,56.2,27.3,55.2,28.9 M33.4,25.7c-1.9,0-2.7-1.2-2.7-3.6v-5.5c0-2.5-0.7-3.7-2.5-3.7
						c-2,0-2.8,1.2-2.8,3.7v5.6c0,2.4-0.9,3.6-2.8,3.6c-1.9,0-2.8-1.2-2.8-3.6v-5.5c0-2.5-0.7-3.7-2.5-3.7c-2,0-2.8,1.2-2.8,3.7v5.6
						c0,2.4-0.9,3.6-2.8,3.6c-1.9,0-2.8-1.2-2.8-3.6v-9.8c0-2.4,0.9-3.5,2.8-3.5c1.1,0,2,0.5,2.6,1.5c1.2-1.1,2.5-1.6,4.4-1.6
						c2.4,0,4.2,0.8,5.5,2.3c1.7-1.6,3.3-2.3,5.5-2.3c3.8,0,6.2,2.2,6.2,6.4v7C36.1,24.5,35.2,25.7,33.4,25.7 M3.3,8.8
						C5.2,8.8,6,9.9,6,12.3v9.8c0,2.4-0.8,3.6-2.7,3.6c-1.9,0-2.8-1.2-2.8-3.6v-9.8C0.6,9.9,1.4,8.8,3.3,8.8"/>
				</g>
				<path id="Fill-4" class="st3" d="M3.3,6.9c-1.8,0-3.2-1.2-3.2-2.8c0-1.5,1.4-2.8,3.2-2.8s3.1,1.3,3.1,2.8
					C6.5,5.7,5.1,6.9,3.3,6.9"/>
			</g>
		</g>
	</g>
</g>
</svg>
